<svg xmlns="http://www.w3.org/2000/svg" viewBox="-0.5 -0.5 16 16" fill="none" stroke="#000000" stroke-linecap="round" stroke-linejoin="round" id="Salad--Streamline-Lucide" height="16" width="16"><desc>Salad Streamline Icon: https://streamlinehq.com</desc><path d="M4.375 13.125h6.25" stroke-width="1"></path><path d="M7.5 13.125a5.625 5.625 0 0 0 5.625 -5.625H1.875a5.625 5.625 0 0 0 5.625 5.625Z" stroke-width="1"></path><path d="M7.112500000000001 7.5a1.5 1.5 0 0 1 -0.25 -2.9812499999999997 1.5 1.5 0 0 1 2 -1.73125 1.5 1.5 0 0 1 2.16875 -0.39375 1.5 1.5 0 0 1 2.10625 2.10625 1.5 1.5 0 0 1 -0.6875 2.3125 1.5687499999999999 1.5687499999999999 0 0 1 0.01875 0.6875" stroke-width="1"></path><path d="m8.125 7.5 2.5 -2.5" stroke-width="1"></path><path d="M6.8125 4.53125A2.4937500000000004 2.4937500000000004 0 0 0 2.5 6.25c0 0.45625 0.125 0.88125 0.3375 1.25" stroke-width="1"></path></svg>